HIERARCHY
ROOT SpineBase
{
  OFFSET 0.000000 0.000000 0.000000
  CHANNELS 6 Xposition Yposition Zposition Zrotation Xrotation Yrotation
  JOINT SpineMid
  {
    OFFSET -0.000000 28.086418 0.000000
    CHANNELS 3 Zrotation Xrotation Yrotation
    JOINT SpineShoulder
    {
      OFFSET 0.282599 20.932936 -0.505076
      CHANNELS 3 Zrotation Xrotation Yrotation
      JOINT Neck
      {
        OFFSET 0.182964 6.943478 -0.435060
        CHANNELS 3 Zrotation Xrotation Yrotation
        JOINT Head
        {
          OFFSET 2.669659 12.661561 1.817538
          CHANNELS 3 Zrotation Xrotation Yrotation
          End Site
          {
            OFFSET 0 0 0
          }
        }
      }
      JOINT ShoulderLeft
      {
        OFFSET -7.963124 -2.913684 -13.031974
        CHANNELS 3 Zrotation Xrotation Yrotation
        JOINT ElbowLeft
        {
          OFFSET -5.895971 -24.533244 -3.021937
          CHANNELS 3 Zrotation Xrotation Yrotation
          JOINT WristLeft
          {
            OFFSET 4.654965 -22.078256 -3.261217
            CHANNELS 3 Zrotation Xrotation Yrotation
            JOINT HandLeft
            {
              OFFSET 1.313345 -5.277544 0.247758
              CHANNELS 3 Zrotation Xrotation Yrotation
              JOINT HandTipLeft
              {
                OFFSET 0.414742 -5.278668 0.000869
                CHANNELS 3 Zrotation Xrotation Yrotation
                End Site
                {
                  OFFSET 0 0 0
                }
              }
              JOINT ThumbLeft
              {
                OFFSET 3.359694 0.976125 0.566675
                CHANNELS 3 Zrotation Xrotation Yrotation
                End Site
                {
                  OFFSET 0 0 0
                }
              }
            }
          }
        }
      }
      JOINT ShoulderRight
      {
        OFFSET 10.050780 -3.501004 5.787269
        CHANNELS 3 Zrotation Xrotation Yrotation
        JOINT ElbowRight
        {
          OFFSET -1.029967 -24.229327 15.547342
          CHANNELS 3 Zrotation Xrotation Yrotation
          JOINT WristRight
          {
            OFFSET 5.416670 -21.047712 -0.926232
            CHANNELS 3 Zrotation Xrotation Yrotation
            JOINT HandRight
            {
              OFFSET 0.879353 -1.107160 -1.667924
              CHANNELS 3 Zrotation Xrotation Yrotation
              JOINT HandTipRight
              {
                OFFSET 0.952364 -4.926544 -1.091553
                CHANNELS 3 Zrotation Xrotation Yrotation
                End Site
                {
                  OFFSET 0 0 0
                }
              }
              JOINT ThumbRight
              {
                OFFSET 0.649186 -2.181195 -4.249029
                CHANNELS 3 Zrotation Xrotation Yrotation
                End Site
                {
                  OFFSET 0 0 0
                }
              }
            }
          }
        }
      }
    }
  }
  JOINT HipLeft
  {
    OFFSET -3.329542 0.737727 -7.186315
    CHANNELS 3 Zrotation Xrotation Yrotation
    JOINT KneeLeft
    {
      OFFSET -4.233297 -29.957144 3.696515
      CHANNELS 3 Zrotation Xrotation Yrotation
      JOINT AnkleLeft
      {
        OFFSET -6.064505 -33.014792 1.776108
        CHANNELS 3 Zrotation Xrotation Yrotation
        JOINT FootLeft
        {
          OFFSET 4.456867 -7.857644 -2.551842
          CHANNELS 3 Zrotation Xrotation Yrotation
          End Site
          {
            OFFSET 0 0 0
          }
        }
      }
    }
  }
  JOINT HipRight
  {
    OFFSET 5.791427 0.200106 0.821188
    CHANNELS 3 Zrotation Xrotation Yrotation
    JOINT KneeRight
    {
      OFFSET -9.080071 -31.392577 3.838448
      CHANNELS 3 Zrotation Xrotation Yrotation
      JOINT AnkleRight
      {
        OFFSET -4.864360 -31.315408 5.135330
        CHANNELS 3 Zrotation Xrotation Yrotation
        JOINT FootRight
        {
          OFFSET -0.526421 -6.558242 -7.927706
          CHANNELS 3 Zrotation Xrotation Yrotation
          End Site
          {
            OFFSET 0 0 0
          }
        }
      }
    }
  }
}
MOTION
Frames: 10
Frame Time: 0.033333
-155.598485 82.048336 411.401594 0.000000 0.000000 -41.280623 -0.000000 -0.000000 41.280623 -0.000000 0.000000 0.000000 -0.000000 0.000000 0.000000 0.000000 0.000000 0.000000 -0.000000 0.000000 0.000000 -0.000000 0.000000 0.000000 -0.000000 0.000000 0.000000 -0.000000 0.000000 0.000000 0.000000 0.000000 0.000000 0.000000 0.000000 0.000000 -0.000000 0.000000 0.000000 -0.000000 0.000000 0.000000 -0.000000 0.000000 0.000000 -0.000000 0.000000 0.000000 0.000000 0.000000 0.000000 0.000000 0.000000 0.000000 -0.000000 -0.000000 41.280623 -0.000000 0.000000 0.000000 -0.000000 0.000000 0.000000 0.000000 0.000000 0.000000 -0.000000 -0.000000 41.280623 -0.000000 0.000000 0.000000 -0.000000 0.000000 0.000000 0.000000 0.000000 0.000000
-155.534683 82.011824 411.373998 0.105628 0.086461 -41.283669 -0.022328 -0.134663 41.283563 -0.000000 0.000000 0.000000 -0.000000 0.000000 0.000000 0.000000 0.000000 0.000000 0.857439 0.238817 -0.165054 -0.856755 -0.241259 0.161463 -3.297901 -2.064689 -0.732793 5.033158 3.351990 0.626396 0.000000 0.000000 0.000000 0.000000 0.000000 0.000000 -0.097336 1.931615 -0.144494 0.102264 -1.931361 0.147859 -12.318880 -21.944503 -2.270650 10.304138 16.192541 -2.603400 0.000000 0.000000 0.000000 0.000000 0.000000 0.000000 0.611217 -0.968738 41.427966 -0.056830 2.134028 -0.342755 0.239791 -1.886119 -0.273418 0.000000 0.000000 0.000000 -0.022328 -0.134663 41.283563 -0.000000 0.000000 0.000000 0.984166 1.328790 -1.290526 0.000000 0.000000 0.000000
-155.470992 81.976808 411.352595 0.208136 0.163821 -41.294285 -0.048270 -0.260438 41.293878 -0.000000 0.000000 0.000000 -0.000000 0.000000 0.000000 0.000000 0.000000 0.000000 1.567060 0.444594 -0.306828 -1.564705 -0.452813 0.294564 -5.954307 -3.705889 -1.411186 9.283579 6.085013 0.900079 0.000000 0.000000 0.000000 0.000000 0.000000 0.000000 -0.212148 4.123956 -0.311034 0.179487 -2.870931 0.647988 -19.173008 -32.224637 -5.519300 14.678688 20.506750 -5.435502 0.000000 0.000000 0.000000 0.000000 0.000000 0.000000 0.995592 -1.627387 41.538525 -0.137813 3.570900 -0.572564 0.470533 -3.237362 -0.478775 0.000000 0.000000 0.000000 -0.048270 -0.260438 41.293878 0.073595 0.857421 -0.121833 1.783064 1.225532 -2.250867 0.000000 0.000000 0.000000
-155.407412 81.943290 411.337384 0.307547 0.232114 -41.312153 -0.077776 -0.377375 41.311274 -0.000000 0.000000 0.000000 -0.000000 0.000000 0.000000 0.000000 0.000000 0.000000 2.134718 0.619872 -0.425119 -1.861234 0.183788 0.534325 -8.325506 -5.773293 -2.246282 12.704314 8.093265 0.950327 0.000000 0.000000 0.000000 0.000000 0.000000 0.000000 -0.342491 6.578622 -0.498356 0.181043 -4.779802 0.990709 -23.383417 -37.317269 -7.595245 17.096764 21.501108 -7.775021 0.000000 0.000000 0.000000 0.000000 0.000000 0.000000 1.173229 -2.005371 41.609406 -0.244607 4.309908 -0.690029 0.686507 -4.022976 -0.629738 0.000000 0.000000 0.000000 -0.077776 -0.377375 41.311274 0.072833 1.145357 -0.166994 2.543110 1.137465 -3.110677 0.000000 0.000000 0.000000
-155.343943 81.911268 411.328366 0.403882 0.291371 -41.337045 -0.110810 -0.485528 41.335548 -0.000000 0.000000 0.000000 -0.000000 0.000000 0.000000 0.000000 0.000000 0.000000 2.564934 0.766708 -0.519786 -2.291764 0.088539 0.630529 -9.863291 -6.783036 -2.763972 15.226788 9.320023 0.895294 0.000000 0.000000 0.000000 0.000000 0.000000 0.000000 -0.486070 9.292820 -0.704921 0.127446 -7.003197 1.334443 -26.303003 -40.473944 -8.962853 19.153779 21.936935 -9.990271 0.000000 0.000000 0.000000 0.000000 0.000000 0.000000 1.154019 -2.117463 41.638928 -0.376504 4.348295 -0.696675 0.882857 -4.227226 -0.736314 0.000000 0.000000 0.000000 -0.110810 -0.485528 41.335548 0.047763 1.347482 -0.202452 3.211106 0.590066 -3.801248 0.000000 0.000000 0.000000
-155.280586 81.880743 411.325541 0.497162 0.341621 -41.368815 -0.147340 -0.584947 41.366581 -0.000000 0.000000 0.000000 -0.000000 0.000000 0.000000 0.000000 0.000000 0.000000 2.860885 0.886694 -0.590687 -2.635010 -0.092072 0.687334 -10.824338 -7.401912 -3.107966 16.796940 9.769058 0.826946 0.000000 0.000000 0.000000 0.000000 0.000000 0.000000 -0.640239 12.257843 -0.928912 0.020479 -9.533342 1.667621 -28.464936 -42.661447 -9.762919 21.539429 22.716280 -12.353897 0.000000 0.000000 0.000000 0.000000 0.000000 0.000000 0.938818 -1.965360 41.626055 -0.530522 3.685031 -0.595702 1.056722 -3.850970 -0.803959 0.000000 0.000000 0.000000 -0.147340 -0.584947 41.366581 -0.001707 1.467194 -0.228655 3.786551 -0.428992 -4.325587 0.000000 0.000000 0.000000
-155.217144 81.848673 411.331500 0.603530 0.388835 -41.419898 -0.195356 -0.690850 41.416672 0.833724 0.393361 0.039029 -0.834011 -0.392751 -0.044749 0.000000 0.000000 0.000000 2.008760 0.577827 -0.636193 -2.832180 -1.001363 0.562097 -9.419666 -6.802923 -2.747430 16.894199 7.562171 0.641211 0.000000 0.000000 0.000000 0.000000 0.000000 0.000000 -1.688086 16.547573 -1.328113 -0.346109 -13.846105 2.029014 -30.378192 -44.543748 -8.936157 27.885324 26.339566 -17.465260 0.000000 0.000000 0.000000 0.000000 0.000000 0.000000 -0.195356 -0.690850 41.416672 -0.000000 0.000000 0.000000 0.447547 -1.573915 -1.034276 0.000000 0.000000 0.000000 -0.195356 -0.690850 41.416672 -0.299545 1.642153 -0.300513 5.650458 -1.488463 -6.024637 0.000000 0.000000 0.000000
-155.167808 81.843652 411.320927 0.675080 0.469947 -41.417995 0.073476 0.020600 41.427742 0.103823 0.073557 0.027479 -0.847978 -0.509772 -0.043452 0.000000 0.000000 0.000000 1.946480 0.536595 -0.643123 -2.782912 -1.077021 0.572855 -8.465491 -6.420860 -2.512653 15.008276 5.759685 0.731299 0.000000 0.000000 0.000000 0.000000 0.000000 0.000000 -1.893498 20.754945 -1.645650 -0.686206 -17.801284 2.299163 -31.331470 -45.528034 -7.262823 33.409099 26.765145 -22.642198 0.000000 0.000000 0.000000 0.000000 0.000000 0.000000 -0.749239 -0.015701 41.287679 -0.844700 -1.923094 0.240136 1.130512 -0.234348 -0.952739 0.000000 0.000000 0.000000 -0.195386 -0.798999 41.413864 -0.406884 1.579671 -0.307032 5.875901 -4.006773 -5.982136 0.000000 0.000000 0.000000
-155.110183 81.811968 411.340769 0.761740 0.475518 -41.421631 0.036882 0.011005 41.431741 0.072045 0.070590 0.027216 -1.507261 -1.126155 0.163665 0.000000 0.000000 0.000000 1.968138 0.606566 -0.672365 -2.824162 -1.168387 0.597151 -8.237179 -6.229628 -2.425096 13.213158 6.526235 0.922907 0.000000 0.000000 0.000000 0.000000 0.000000 0.000000 -2.058072 24.176200 -1.898375 -0.978336 -20.968480 2.453098 -33.250844 -47.363183 -7.550285 38.882636 29.043169 -26.762099 0.000000 0.000000 0.000000 0.000000 0.000000 0.000000 -1.384950 0.877327 41.163831 -1.133385 -3.924454 0.501305 1.171334 1.198202 -0.801395 0.000000 0.000000 0.000000 -1.282373 -1.456292 41.187189 1.342202 0.979101 0.052103 3.372928 -6.424984 -3.680537 0.000000 0.000000 0.000000
-155.054673 81.760282 411.366936 0.819890 0.465245 -41.570649 -0.000885 -0.027478 41.580704 0.029251 0.058417 0.025138 -1.478572 -1.122593 0.171965 0.000000 0.000000 0.000000 1.888958 0.626824 -0.655103 -2.706882 -1.160267 0.582341 -8.743260 -5.659501 -2.291789 13.328969 6.263542 0.925211 0.000000 0.000000 0.000000 0.000000 0.000000 0.000000 -2.111470 26.307667 -2.052106 -1.098387 -22.910359 2.548748 -34.337836 -48.312871 -7.377528 40.868275 28.608885 -28.932140 0.000000 0.000000 0.000000 0.000000 0.000000 0.000000 -2.048848 1.635147 41.189903 -1.215947 -5.697384 0.748034 0.898496 2.634882 -0.457637 0.000000 0.000000 0.000000 -0.304733 -0.892077 41.564948 -0.585883 1.254396 -0.284808 5.340934 -8.796827 -4.783194 0.000000 0.000000 0.000000
